<mxfile host="app.diagrams.net" agent="Mozilla/5.0 (Windows NT 10.0; Win64; x64) AppleWebKit/537.36 (KHTML, like Gecko) Chrome/138.0.0.0 Safari/537.36" version="28.0.6">
  <diagram name="Page-1" id="-H_mtQnk-PTXWXPvYvuk">
    <mxGraphModel dx="930" dy="546" grid="1" gridSize="10" guides="1" tooltips="1" connect="1" arrows="1" fold="1" page="1" pageScale="1" pageWidth="1169" pageHeight="827" background="#ffffff" math="0" shadow="0">
      <root>
        <mxCell id="0" />
        <mxCell id="1" parent="0" />
        <mxCell id="M3Q7F0y20DK5DFM-mO5N-11" value="shard-1" style="swimlane;whiteSpace=wrap;html=1;fillColor=#bac8d3;strokeColor=#23445d;" parent="1" vertex="1">
          <mxGeometry x="430" y="490" width="110" height="310" as="geometry">
            <mxRectangle x="110" y="200" width="140" height="30" as="alternateBounds" />
          </mxGeometry>
        </mxCell>
        <mxCell id="zA23MoTUsTF4_91t8viU-2" value="primamary&lt;br&gt;1-1" style="shape=cylinder3;whiteSpace=wrap;html=1;boundedLbl=1;backgroundOutline=1;size=15;fillColor=#f8cecc;strokeColor=#b85450;" parent="M3Q7F0y20DK5DFM-mO5N-11" vertex="1">
          <mxGeometry x="20" y="40" width="70" height="80" as="geometry" />
        </mxCell>
        <mxCell id="M3Q7F0y20DK5DFM-mO5N-37" value="secondary&lt;br&gt;1-2" style="shape=cylinder3;whiteSpace=wrap;html=1;boundedLbl=1;backgroundOutline=1;size=15;fillColor=#d5e8d4;strokeColor=#82b366;" parent="M3Q7F0y20DK5DFM-mO5N-11" vertex="1">
          <mxGeometry x="20" y="130" width="70" height="80" as="geometry" />
        </mxCell>
        <mxCell id="M3Q7F0y20DK5DFM-mO5N-38" value="secondary&lt;br&gt;1-3" style="shape=cylinder3;whiteSpace=wrap;html=1;boundedLbl=1;backgroundOutline=1;size=15;fillColor=#d5e8d4;strokeColor=#82b366;" parent="M3Q7F0y20DK5DFM-mO5N-11" vertex="1">
          <mxGeometry x="20" y="220" width="70" height="80" as="geometry" />
        </mxCell>
        <mxCell id="M3Q7F0y20DK5DFM-mO5N-16" value="shard-2" style="swimlane;whiteSpace=wrap;html=1;fillColor=#bac8d3;strokeColor=#23445d;" parent="1" vertex="1">
          <mxGeometry x="620" y="490" width="110" height="310" as="geometry">
            <mxRectangle x="110" y="200" width="140" height="30" as="alternateBounds" />
          </mxGeometry>
        </mxCell>
        <mxCell id="M3Q7F0y20DK5DFM-mO5N-17" value="primamary&lt;br&gt;2-1" style="shape=cylinder3;whiteSpace=wrap;html=1;boundedLbl=1;backgroundOutline=1;size=15;fillColor=#f8cecc;strokeColor=#b85450;" parent="M3Q7F0y20DK5DFM-mO5N-16" vertex="1">
          <mxGeometry x="20" y="40" width="70" height="80" as="geometry" />
        </mxCell>
        <mxCell id="M3Q7F0y20DK5DFM-mO5N-39" value="secondary&lt;br&gt;2-2" style="shape=cylinder3;whiteSpace=wrap;html=1;boundedLbl=1;backgroundOutline=1;size=15;fillColor=#d5e8d4;strokeColor=#82b366;" parent="M3Q7F0y20DK5DFM-mO5N-16" vertex="1">
          <mxGeometry x="20" y="130" width="70" height="80" as="geometry" />
        </mxCell>
        <mxCell id="M3Q7F0y20DK5DFM-mO5N-40" value="secondary&lt;br&gt;2-3" style="shape=cylinder3;whiteSpace=wrap;html=1;boundedLbl=1;backgroundOutline=1;size=15;fillColor=#d5e8d4;strokeColor=#82b366;" parent="M3Q7F0y20DK5DFM-mO5N-16" vertex="1">
          <mxGeometry x="20" y="220" width="70" height="80" as="geometry" />
        </mxCell>
        <mxCell id="M3Q7F0y20DK5DFM-mO5N-20" value="mongos-router" style="rounded=1;whiteSpace=wrap;html=1;fillColor=#dae8fc;strokeColor=#6c8ebf;" parent="1" vertex="1">
          <mxGeometry x="540" y="430" width="80" height="40" as="geometry" />
        </mxCell>
        <mxCell id="M3Q7F0y20DK5DFM-mO5N-30" value="" style="endArrow=classic;startArrow=classic;html=1;rounded=0;entryX=0;entryY=0.5;entryDx=0;entryDy=0;exitX=0.5;exitY=0;exitDx=0;exitDy=0;" parent="1" source="M3Q7F0y20DK5DFM-mO5N-11" target="M3Q7F0y20DK5DFM-mO5N-20" edge="1">
          <mxGeometry width="50" height="50" relative="1" as="geometry">
            <mxPoint x="480" y="470" as="sourcePoint" />
            <mxPoint x="530" y="420" as="targetPoint" />
            <Array as="points">
              <mxPoint x="485" y="450" />
            </Array>
          </mxGeometry>
        </mxCell>
        <mxCell id="M3Q7F0y20DK5DFM-mO5N-31" value="" style="endArrow=classic;startArrow=classic;html=1;rounded=0;exitX=1;exitY=0.5;exitDx=0;exitDy=0;entryX=0.5;entryY=0;entryDx=0;entryDy=0;" parent="1" source="M3Q7F0y20DK5DFM-mO5N-20" target="M3Q7F0y20DK5DFM-mO5N-16" edge="1">
          <mxGeometry width="50" height="50" relative="1" as="geometry">
            <mxPoint x="670" y="430" as="sourcePoint" />
            <mxPoint x="720" y="380" as="targetPoint" />
            <Array as="points">
              <mxPoint x="675" y="450" />
            </Array>
          </mxGeometry>
        </mxCell>
        <mxCell id="M3Q7F0y20DK5DFM-mO5N-35" value="" style="endArrow=classic;startArrow=classic;html=1;rounded=0;entryX=0.5;entryY=1;entryDx=0;entryDy=0;exitX=0.5;exitY=0;exitDx=0;exitDy=0;" parent="1" source="M3Q7F0y20DK5DFM-mO5N-36" target="M3Q7F0y20DK5DFM-mO5N-20" edge="1">
          <mxGeometry width="50" height="50" relative="1" as="geometry">
            <mxPoint x="580" y="650" as="sourcePoint" />
            <mxPoint x="610" y="510" as="targetPoint" />
          </mxGeometry>
        </mxCell>
        <mxCell id="M3Q7F0y20DK5DFM-mO5N-36" value="config-srv" style="rounded=1;whiteSpace=wrap;html=1;fillColor=#fad7ac;strokeColor=#b46504;" parent="1" vertex="1">
          <mxGeometry x="540" y="820" width="80" height="40" as="geometry" />
        </mxCell>
        <mxCell id="M3Q7F0y20DK5DFM-mO5N-41" value="" style="endArrow=classic;startArrow=classic;html=1;rounded=0;entryX=0;entryY=0.5;entryDx=0;entryDy=0;exitX=0.5;exitY=1;exitDx=0;exitDy=0;" parent="1" source="M3Q7F0y20DK5DFM-mO5N-11" target="M3Q7F0y20DK5DFM-mO5N-36" edge="1">
          <mxGeometry width="50" height="50" relative="1" as="geometry">
            <mxPoint x="440" y="900" as="sourcePoint" />
            <mxPoint x="490" y="850" as="targetPoint" />
            <Array as="points">
              <mxPoint x="485" y="840" />
            </Array>
          </mxGeometry>
        </mxCell>
        <mxCell id="M3Q7F0y20DK5DFM-mO5N-42" value="" style="endArrow=classic;startArrow=classic;html=1;rounded=0;entryX=0.5;entryY=1;entryDx=0;entryDy=0;exitX=1;exitY=0.5;exitDx=0;exitDy=0;" parent="1" source="M3Q7F0y20DK5DFM-mO5N-36" target="M3Q7F0y20DK5DFM-mO5N-16" edge="1">
          <mxGeometry width="50" height="50" relative="1" as="geometry">
            <mxPoint x="680" y="910" as="sourcePoint" />
            <mxPoint x="730" y="860" as="targetPoint" />
            <Array as="points">
              <mxPoint x="675" y="840" />
            </Array>
          </mxGeometry>
        </mxCell>
        <mxCell id="scUt7BSp7KANny1c2zFL-6" style="edgeStyle=orthogonalEdgeStyle;rounded=0;orthogonalLoop=1;jettySize=auto;html=1;" parent="1" source="scUt7BSp7KANny1c2zFL-1" target="scUt7BSp7KANny1c2zFL-2" edge="1">
          <mxGeometry relative="1" as="geometry" />
        </mxCell>
        <mxCell id="scUt7BSp7KANny1c2zFL-7" style="edgeStyle=orthogonalEdgeStyle;rounded=0;orthogonalLoop=1;jettySize=auto;html=1;entryX=0.5;entryY=0;entryDx=0;entryDy=0;" parent="1" source="scUt7BSp7KANny1c2zFL-1" target="scUt7BSp7KANny1c2zFL-4" edge="1">
          <mxGeometry relative="1" as="geometry" />
        </mxCell>
        <mxCell id="scUt7BSp7KANny1c2zFL-8" style="edgeStyle=orthogonalEdgeStyle;rounded=0;orthogonalLoop=1;jettySize=auto;html=1;" parent="1" source="scUt7BSp7KANny1c2zFL-1" target="scUt7BSp7KANny1c2zFL-3" edge="1">
          <mxGeometry relative="1" as="geometry" />
        </mxCell>
        <mxCell id="scUt7BSp7KANny1c2zFL-1" value="api-gateway" style="rounded=1;whiteSpace=wrap;html=1;fillColor=#bac8d3;strokeColor=#23445d;" parent="1" vertex="1">
          <mxGeometry x="520" y="130" width="120" height="60" as="geometry" />
        </mxCell>
        <mxCell id="scUt7BSp7KANny1c2zFL-2" value="pymongo-api&lt;br&gt;1" style="rounded=1;whiteSpace=wrap;html=1;fillColor=#fff2cc;gradientColor=#ffd966;strokeColor=#d6b656;" parent="1" vertex="1">
          <mxGeometry x="380" y="310" width="100" height="60" as="geometry" />
        </mxCell>
        <mxCell id="scUt7BSp7KANny1c2zFL-3" value="pymongo-api&lt;br&gt;2" style="rounded=1;whiteSpace=wrap;html=1;fillColor=#fff2cc;gradientColor=#ffd966;strokeColor=#d6b656;" parent="1" vertex="1">
          <mxGeometry x="530" y="250" width="100" height="60" as="geometry" />
        </mxCell>
        <mxCell id="scUt7BSp7KANny1c2zFL-4" value="pymongo-api&lt;br&gt;n" style="rounded=1;whiteSpace=wrap;html=1;fillColor=#fff2cc;gradientColor=#ffd966;strokeColor=#d6b656;" parent="1" vertex="1">
          <mxGeometry x="680" y="190" width="100" height="60" as="geometry" />
        </mxCell>
        <mxCell id="scUt7BSp7KANny1c2zFL-5" value="Service&lt;br&gt;Discovery" style="rounded=1;whiteSpace=wrap;html=1;fillColor=#f8cecc;gradientColor=#ea6b66;strokeColor=#b85450;" parent="1" vertex="1">
          <mxGeometry x="830" y="234" width="70" height="90" as="geometry" />
        </mxCell>
        <mxCell id="scUt7BSp7KANny1c2zFL-13" value="redis" style="shape=cylinder3;whiteSpace=wrap;html=1;boundedLbl=1;backgroundOutline=1;size=15;fillColor=#e1d5e7;strokeColor=#9673a6;" parent="1" vertex="1">
          <mxGeometry x="270" y="249" width="90" height="60" as="geometry" />
        </mxCell>
        <mxCell id="scUt7BSp7KANny1c2zFL-17" value="" style="endArrow=classic;startArrow=classic;html=1;rounded=0;exitX=0.5;exitY=1;exitDx=0;exitDy=0;exitPerimeter=0;" parent="1" source="scUt7BSp7KANny1c2zFL-13" edge="1">
          <mxGeometry width="50" height="50" relative="1" as="geometry">
            <mxPoint x="330" y="390" as="sourcePoint" />
            <mxPoint x="380" y="340" as="targetPoint" />
            <Array as="points">
              <mxPoint x="315" y="340" />
            </Array>
          </mxGeometry>
        </mxCell>
        <mxCell id="scUt7BSp7KANny1c2zFL-20" value="" style="endArrow=classic;startArrow=classic;html=1;rounded=0;exitX=1;exitY=0.517;exitDx=0;exitDy=0;exitPerimeter=0;" parent="1" source="scUt7BSp7KANny1c2zFL-13" edge="1">
          <mxGeometry width="50" height="50" relative="1" as="geometry">
            <mxPoint x="480" y="330" as="sourcePoint" />
            <mxPoint x="530" y="280" as="targetPoint" />
          </mxGeometry>
        </mxCell>
        <mxCell id="scUt7BSp7KANny1c2zFL-21" value="" style="endArrow=classic;startArrow=classic;html=1;rounded=0;entryX=0;entryY=0.5;entryDx=0;entryDy=0;exitX=0.5;exitY=0;exitDx=0;exitDy=0;exitPerimeter=0;" parent="1" source="scUt7BSp7KANny1c2zFL-13" target="scUt7BSp7KANny1c2zFL-4" edge="1">
          <mxGeometry width="50" height="50" relative="1" as="geometry">
            <mxPoint x="320" y="240" as="sourcePoint" />
            <mxPoint x="370" y="190" as="targetPoint" />
            <Array as="points">
              <mxPoint x="315" y="220" />
            </Array>
          </mxGeometry>
        </mxCell>
        <mxCell id="scUt7BSp7KANny1c2zFL-30" value="" style="endArrow=classic;startArrow=classic;html=1;rounded=0;entryX=0.5;entryY=1;entryDx=0;entryDy=0;" parent="1" target="scUt7BSp7KANny1c2zFL-5" edge="1">
          <mxGeometry width="50" height="50" relative="1" as="geometry">
            <mxPoint x="480" y="340" as="sourcePoint" />
            <mxPoint x="530" y="290" as="targetPoint" />
            <Array as="points">
              <mxPoint x="865" y="340" />
            </Array>
          </mxGeometry>
        </mxCell>
        <mxCell id="scUt7BSp7KANny1c2zFL-31" value="" style="endArrow=classic;startArrow=classic;html=1;rounded=0;entryX=0;entryY=0.5;entryDx=0;entryDy=0;" parent="1" target="scUt7BSp7KANny1c2zFL-5" edge="1">
          <mxGeometry width="50" height="50" relative="1" as="geometry">
            <mxPoint x="630" y="280" as="sourcePoint" />
            <mxPoint x="680" y="230" as="targetPoint" />
          </mxGeometry>
        </mxCell>
        <mxCell id="scUt7BSp7KANny1c2zFL-32" value="" style="endArrow=classic;startArrow=classic;html=1;rounded=0;entryX=0.5;entryY=0;entryDx=0;entryDy=0;" parent="1" target="scUt7BSp7KANny1c2zFL-5" edge="1">
          <mxGeometry width="50" height="50" relative="1" as="geometry">
            <mxPoint x="780" y="220" as="sourcePoint" />
            <mxPoint x="830" y="170" as="targetPoint" />
            <Array as="points">
              <mxPoint x="865" y="220" />
            </Array>
          </mxGeometry>
        </mxCell>
        <mxCell id="scUt7BSp7KANny1c2zFL-33" value="" style="endArrow=classic;startArrow=classic;html=1;rounded=0;entryX=0.5;entryY=1;entryDx=0;entryDy=0;" parent="1" target="scUt7BSp7KANny1c2zFL-3" edge="1">
          <mxGeometry width="50" height="50" relative="1" as="geometry">
            <mxPoint x="580" y="430" as="sourcePoint" />
            <mxPoint x="630" y="380" as="targetPoint" />
          </mxGeometry>
        </mxCell>
        <mxCell id="scUt7BSp7KANny1c2zFL-34" value="" style="endArrow=classic;startArrow=classic;html=1;rounded=0;exitX=0.5;exitY=0;exitDx=0;exitDy=0;" parent="1" source="M3Q7F0y20DK5DFM-mO5N-20" edge="1">
          <mxGeometry width="50" height="50" relative="1" as="geometry">
            <mxPoint x="380" y="420" as="sourcePoint" />
            <mxPoint x="430" y="370" as="targetPoint" />
            <Array as="points">
              <mxPoint x="580" y="400" />
              <mxPoint x="430" y="400" />
            </Array>
          </mxGeometry>
        </mxCell>
        <mxCell id="scUt7BSp7KANny1c2zFL-35" value="" style="endArrow=classic;startArrow=classic;html=1;rounded=0;exitX=0.5;exitY=0;exitDx=0;exitDy=0;entryX=0.5;entryY=1;entryDx=0;entryDy=0;" parent="1" source="M3Q7F0y20DK5DFM-mO5N-20" target="scUt7BSp7KANny1c2zFL-4" edge="1">
          <mxGeometry width="50" height="50" relative="1" as="geometry">
            <mxPoint x="680" y="400" as="sourcePoint" />
            <mxPoint x="730" y="350" as="targetPoint" />
            <Array as="points">
              <mxPoint x="580" y="400" />
              <mxPoint x="730" y="400" />
            </Array>
          </mxGeometry>
        </mxCell>
        <mxCell id="tdizVANZ-jqAJwj1ui6G-2" style="edgeStyle=orthogonalEdgeStyle;rounded=0;orthogonalLoop=1;jettySize=auto;html=1;entryX=0.5;entryY=0;entryDx=0;entryDy=0;" edge="1" parent="1" source="tdizVANZ-jqAJwj1ui6G-1" target="scUt7BSp7KANny1c2zFL-1">
          <mxGeometry relative="1" as="geometry" />
        </mxCell>
        <mxCell id="tdizVANZ-jqAJwj1ui6G-1" value="CDN" style="rounded=1;whiteSpace=wrap;html=1;fillColor=#b0e3e6;strokeColor=#0e8088;" vertex="1" parent="1">
          <mxGeometry x="430" y="70" width="300" height="30" as="geometry" />
        </mxCell>
        <mxCell id="tdizVANZ-jqAJwj1ui6G-3" value="Статичные двнные" style="shape=cylinder3;whiteSpace=wrap;html=1;boundedLbl=1;backgroundOutline=1;size=8.655172413793082;fontSize=8;fillColor=#cdeb8b;strokeColor=#36393d;" vertex="1" parent="1">
          <mxGeometry x="330" y="62" width="60" height="45" as="geometry" />
        </mxCell>
        <mxCell id="tdizVANZ-jqAJwj1ui6G-4" value="" style="endArrow=classic;startArrow=classic;html=1;rounded=0;exitX=1;exitY=0.5;exitDx=0;exitDy=0;exitPerimeter=0;entryX=0;entryY=0.5;entryDx=0;entryDy=0;" edge="1" parent="1" source="tdizVANZ-jqAJwj1ui6G-3" target="tdizVANZ-jqAJwj1ui6G-1">
          <mxGeometry width="50" height="50" relative="1" as="geometry">
            <mxPoint x="380" y="130" as="sourcePoint" />
            <mxPoint x="430" y="80" as="targetPoint" />
          </mxGeometry>
        </mxCell>
      </root>
    </mxGraphModel>
  </diagram>
</mxfile>
